<?xml version="1.0" encoding="UTF-8"?>
<svg id="Calque_1" data-name="Calque 1" xmlns="http://www.w3.org/2000/svg" viewBox="0 0 127.65 33.76">
  <defs>
    <style>
      .cls-1 {
        fill: #fff;
      }

      .cls-2 {
        fill: #ecb025;
      }

      .cls-3 {
        fill: #373737;
      }

      .cls-4 {
        font-family: AraJozoor-Regular, 'Jozoor Font';
        font-size: 21.73px;
      }

      .cls-4, .cls-5 {
        fill: #1d1d1b;
      }
    </style>
  </defs>
  <g>
    <path class="cls-1" d="M4.38,16.98s.02-.01,.02-.02c0,0-.02,.01-.03,.02,.05-.05,.05-.1,.03-.16-.46-1.22-.75-2.48-.99-3.75-.22-1.2-.41-2.42-.63-3.62-.04-.24,0-.39,.24-.47,.12-.04,.24-.12,.35-.17,1.91-.96,3.82-1.92,5.72-2.88,1.98-1.01,3.95-2.03,5.93-3.04,.29-.15,.59-.23,.91-.03,.48,.29,.97,.57,1.47,.82,2.61,1.3,5.23,2.61,7.83,3.93,.36,.18,.69,.26,1.07,.02,.17-.11,.4-.15,.61-.18,.81-.11,1.62-.2,2.46-.3-.22-.22-.5-.28-.73-.41C24.37,4.51,20.09,2.29,15.82,.07c-.2-.1-.35-.09-.53,0-.62,.31-1.24,.61-1.86,.92C9.07,3.16,4.71,5.32,.34,7.48c-.3,.15-.38,.3-.32,.63,.37,1.8,.77,3.59,1.05,5.4,.14,.85,.54,1.43,1.19,1.94,.69,.54,1.43,1,2.11,1.54Zm.1,5.07s0-.09-.05-.02c.02,0,.04,.01,.06,.02,.15,.43,.45,.78,.71,1.15,1.54,2.2,3.19,4.3,5.05,6.25,1.48,1.55,3.05,2.97,4.81,4.19,.22,.15,.39,.17,.62,.04,.87-.49,1.68-1.05,2.47-1.66,2.2-1.68,4.11-3.66,5.75-5.89,1.73-2.37,3.08-4.95,4.1-7.7,.84-2.27,1.38-4.61,1.8-6.99,.04-.21-.03-.27-.25-.2-.81,.27-1.52,.7-2.15,1.27-1.17,1.07-2.05,2.37-2.78,3.77-.85,1.62-1.65,3.27-2.51,4.88-.88,1.66-1.86,3.27-3.16,4.65-.92,.97-1.98,1.75-3.32,2.02-.83,.17-1.68,.23-2.55,.14-1.03-.1-1.99-.37-2.9-.83-1.53-.78-2.81-1.9-3.96-3.17-.58-.64-1.15-1.28-1.73-1.91ZM0,14.8c.82,1.67,1.89,3.06,3.05,4.39,1.71,1.94,3.59,3.69,5.84,4.99,1.08,.62,2.25,1.08,3.48,1.24,1.59,.21,2.99-.32,4.22-1.31,1.26-1,2.13-2.32,2.96-3.66,.86-1.41,1.48-2.94,2.28-4.38,1.23-2.22,2.8-4.14,5.01-5.46,.99-.59,2.02-1.06,3.16-1.3,.71-.15,1.42-.21,2.13-.31-.63-.08-1.26-.16-1.89-.2-2.2-.15-4.23,.36-6.11,1.53-2.61,1.62-4.84,3.71-7.04,5.83-1.39,1.34-2.83,2.56-4.68,3.22-1.8,.64-3.62,.71-5.45,.16-2.56-.78-4.66-2.28-6.47-4.22-.14-.15-.25-.34-.52-.5Zm5.79-1.66c.33,0,.66,0,.99,0,.21,0,.3,.09,.29,.31-.01,.25,0,.5,.02,.75,.03,.38,.11,.75-.11,1.12-.08,.13-.06,.31,.06,.44,.16,.18,.17,.38,.17,.6,0,.91,0,.91,.86,1.12,.26,.07,.33,.04,.24-.24-.18-.57-.38-1.14-.28-1.75,.03-.16-.03-.32-.15-.43-.15-.14-.21-.31-.25-.5-.09-.38-.16-.77-.25-1.15-.05-.2,.05-.23,.21-.22,.37,.02,.74,.04,1.11,.06,.24,0,.3,.12,.26,.35-.08,.45-.05,.91,.09,1.35,.37,1.15,1.15,1.91,2.33,2.14,1.17,.23,2.17-.17,2.94-1.1,.66-.8,.81-1.7,.56-2.69-.05-.2-.08-.37,.13-.5,1.19-.74,2.26-1.64,3.44-2.4,.06-.04,.15-.08,.13-.21-1.01-.05-2.02-.13-3.03-.15-1.39-.02-2.78-.07-4.16-.17-.39-.03-.69,.06-1.01,.26-1.2,.76-2.41,1.51-3.61,2.27-.33,.21-.7,.38-.97,.74Z"/>
    <path class="cls-2" d="M4.48,22.04c.58,.64,1.15,1.28,1.73,1.91,1.15,1.27,2.43,2.38,3.96,3.17,.91,.46,1.87,.73,2.9,.83,.87,.08,1.72,.03,2.55-.14,1.33-.27,2.39-1.05,3.32-2.02,1.3-1.38,2.28-2.99,3.16-4.65,.86-1.62,1.66-3.26,2.51-4.88,.73-1.39,1.61-2.69,2.78-3.77,.62-.57,1.34-1,2.15-1.27,.23-.07,.29-.01,.25,.2-.42,2.38-.96,4.72-1.8,6.99-1.02,2.75-2.36,5.33-4.1,7.7-1.64,2.24-3.54,4.21-5.75,5.89-.79,.6-1.61,1.16-2.47,1.66-.23,.13-.4,.11-.62-.04-1.76-1.22-3.33-2.65-4.81-4.19-1.86-1.94-3.51-4.05-5.05-6.25-.26-.37-.55-.72-.71-1.15h0Z"/>
    <path class="cls-5" d="M0,14.8c.27,.16,.38,.34,.52,.5,1.81,1.94,3.9,3.44,6.47,4.22,1.83,.56,3.65,.48,5.45-.16,1.85-.66,3.29-1.88,4.68-3.22,2.2-2.11,4.42-4.21,7.04-5.83,1.88-1.16,3.91-1.67,6.11-1.53,.63,.04,1.26,.12,1.89,.2-.71,.1-1.43,.16-2.13,.31-1.14,.24-2.18,.71-3.16,1.3-2.21,1.32-3.78,3.24-5.01,5.46-.8,1.44-1.42,2.98-2.28,4.38-.83,1.35-1.7,2.66-2.96,3.66-1.24,.99-2.64,1.52-4.22,1.31-1.24-.16-2.4-.62-3.48-1.24-2.25-1.3-4.13-3.05-5.84-4.99C1.89,17.86,.83,16.47,0,14.8Z"/>
    <path class="cls-5" d="M4.38,16.98c-.68-.54-1.43-1-2.11-1.54-.65-.51-1.05-1.08-1.19-1.94C.79,11.69,.39,9.9,.02,8.1c-.07-.32,.02-.48,.32-.63C4.71,5.32,9.07,3.16,13.43,.99c.62-.31,1.24-.61,1.86-.92,.18-.09,.34-.1,.53,0,4.27,2.22,8.55,4.43,12.83,6.65,.24,.12,.51,.19,.73,.41-.84,.1-1.65,.19-2.46,.3-.21,.03-.44,.07-.61,.18-.38,.24-.7,.16-1.07-.02-2.61-1.32-5.22-2.63-7.83-3.93-.5-.25-.99-.53-1.47-.82-.32-.19-.61-.11-.91,.03-1.98,1.01-3.95,2.03-5.93,3.04-1.9,.97-3.81,1.92-5.72,2.88-.12,.06-.23,.13-.35,.17-.23,.08-.29,.23-.24,.47,.22,1.21,.41,2.42,.63,3.62,.24,1.27,.53,2.54,.99,3.75,.02,.06,.02,.12-.03,.16h0Z"/>
    <path class="cls-5" d="M5.8,13.14c.27-.36,.64-.53,.97-.74,1.2-.76,2.41-1.51,3.61-2.27,.31-.2,.62-.29,1.01-.26,1.38,.11,2.77,.15,4.16,.17,1.01,.02,2.02,.1,3.03,.15,.02,.13-.06,.17-.13,.21-1.18,.76-2.25,1.66-3.44,2.4-.21,.13-.18,.31-.13,.5,.25,.99,.09,1.9-.56,2.69-.77,.93-1.76,1.33-2.94,1.1-1.19-.23-1.96-.99-2.33-2.14-.14-.44-.17-.89-.09-1.35,.04-.23-.02-.34-.26-.35-.37-.01-.74-.03-1.11-.06-.16-.01-.26,.02-.21,.22,.09,.38,.17,.77,.25,1.15,.04,.19,.1,.36,.25,.5,.12,.11,.18,.26,.15,.43-.1,.62,.11,1.19,.28,1.75,.09,.28,.02,.31-.24,.24-.85-.22-.86-.21-.86-1.12,0-.22-.01-.43-.17-.6-.11-.13-.13-.31-.06-.44,.21-.36,.14-.74,.11-1.12-.02-.25-.04-.5-.02-.75,.01-.22-.08-.31-.29-.31-.33,0-.66,0-.99,0Z"/>
    <path class="cls-3" d="M4.37,16.98s.02-.01,.03-.02c0,0-.02,.01-.03,.02,0,0,0,0,0,0Z"/>
    <path class="cls-2" d="M4.48,22.04s-.04-.01-.06-.02c.05-.06,.04,0,.05,.02,0,0,0,0,0,0Z"/>
  </g>
  <text class="cls-4" transform="translate(35.65 24.36)"><tspan x="0" y="0">Tawjihna</tspan></text>
</svg>